<?xml version="1.0" encoding="utf-8"?>
<!-- Generator: Adobe Illustrator 22.0.0, SVG Export Plug-In . SVG Version: 6.00 Build 0)  -->
<svg version="1.1" id="Layer_1" xmlns="http://www.w3.org/2000/svg" xmlns:xlink="http://www.w3.org/1999/xlink" x="0px" y="0px"
	 viewBox="0 0 1064.1 117.4" style="enable-background:new 0 0 1064.1 117.4;" xml:space="preserve">
<style type="text/css">
	.st0{fill:#B7BEC8;}
	.st1{fill:#B4D79F;}
	.st2{fill:#F8F7F7;}
</style>
<g>
	<path class="st0" d="M70.1,36.6l-9.6,9.2c-6.6-6.9-13.9-10.4-22.1-10.4c-6.9,0-12.7,2.4-17.5,7.1C16.1,47.2,13.8,53,13.8,60
		c0,4.8,1,9.1,3.1,12.9c2.1,3.7,5.1,6.7,8.9,8.8c3.8,2.1,8.1,3.2,12.8,3.2c4,0,7.7-0.7,11-2.2c3.3-1.5,6.9-4.2,10.9-8.2l9.3,9.7
		C64.5,89.4,59.4,93,54.7,95c-4.8,2-10.2,3-16.3,3c-11.3,0-20.5-3.6-27.6-10.7C3.6,80.2,0,71.1,0,59.9c0-7.2,1.6-13.6,4.9-19.2
		c3.3-5.6,7.9-10.1,14-13.5C25,23.7,31.6,22,38.6,22c6,0,11.7,1.3,17.2,3.8C61.4,28.3,66.1,31.9,70.1,36.6z"/>
	<path class="st0" d="M89.2,23.9h13.4l16.8,50.5l16.9-50.5h13.4l12.1,72.4h-13.3l-7.8-45.7l-15.4,45.7h-12.1L98.1,50.5l-7.9,45.7
		H76.7L89.2,23.9z"/>
	<path class="st0" d="M210.9,33.7l-10.2,9c-3.6-5-7.2-7.5-10.9-7.5c-1.8,0-3.3,0.5-4.4,1.5c-1.2,1-1.7,2.1-1.7,3.3
		c0,1.2,0.4,2.4,1.2,3.4c1.1,1.4,4.5,4.5,10.1,9.3c5.3,4.4,8.4,7.2,9.6,8.3c2.8,2.8,4.8,5.5,5.9,8.1c1.2,2.6,1.8,5.4,1.8,8.4
		c0,5.9-2.1,10.8-6.2,14.7c-4.1,3.9-9.5,5.8-16.1,5.8c-5.2,0-9.6-1.3-13.5-3.8c-3.8-2.5-7.1-6.5-9.8-11.9l11.6-7
		c3.5,6.4,7.5,9.6,12,9.6c2.4,0,4.4-0.7,6-2.1c1.6-1.4,2.4-3,2.4-4.8c0-1.6-0.6-3.3-1.8-4.9c-1.2-1.6-3.9-4.1-8-7.5
		c-7.9-6.4-13-11.4-15.3-14.9c-2.3-3.5-3.5-7-3.5-10.5c0-5,1.9-9.3,5.7-12.9c3.8-3.6,8.5-5.4,14.2-5.4c3.6,0,7.1,0.8,10.3,2.5
		C203.5,26.2,207.1,29.3,210.9,33.7z"/>
	<path class="st1" d="M228.1,82.2c2.1,0,4,0.7,5.5,2.2c1.5,1.5,2.3,3.3,2.3,5.4c0,2.1-0.8,4-2.3,5.5c-1.5,1.5-3.3,2.3-5.5,2.3
		s-4-0.8-5.5-2.3s-2.3-3.3-2.3-5.5c0-2.1,0.8-3.9,2.3-5.4C224.2,83,226,82.2,228.1,82.2z"/>
</g>
<g>
	<path class="st2" d="M288.6,43.8h6.1v39.5c0,3.8-0.2,6.8-0.7,9.2c-0.5,2.3-1.4,4.5-2.7,6.6c-1.3,2-3,3.8-5,5.3s-4.2,2.7-6.7,3.5
		c-2.5,0.8-5.2,1.2-8.2,1.2c-3.6,0-6.9-0.6-10.1-1.7c-3.1-1.1-5.9-2.7-8.1-4.8c-1.8-1.6-3.2-3.3-4.3-5.3c-0.8-1.4-1.5-3.2-2.2-5.5
		h6.5c1.7,3.9,4.1,6.9,7.2,8.9s6.7,3,10.7,3c2.9,0,5.6-0.5,7.9-1.6s4.1-2.3,5.5-3.9s2.4-3.5,3.1-5.7c0.5-1.6,0.8-3.7,0.8-6.3v-4.1
		h-0.2c-1.4,2.1-2.7,3.7-4,4.8c-1.8,1.5-3.9,2.7-6.4,3.6s-5.1,1.3-7.9,1.3c-4.4,0-8.6-1.1-12.6-3.2c-4-2.1-7.2-5.1-9.4-8.9
		c-2.2-3.8-3.3-7.9-3.3-12.3c0-3.7,0.7-7,2.1-10c1.4-3,3.1-5.5,5.2-7.5c2.1-2,4.4-3.6,6.8-4.8c3.5-1.7,7.2-2.6,11-2.6
		c2.8,0,5.4,0.4,7.9,1.3c2.5,0.9,4.6,2.1,6.5,3.6c1.4,1.1,2.8,2.7,4.2,4.6h0.2V43.8z M251,67.3c0,3.3,0.8,6.4,2.5,9.5
		c1.6,3,4,5.4,7,7.1c3,1.7,6.2,2.6,9.6,2.6c3.4,0,6.6-0.9,9.5-2.6c2.9-1.7,5.2-4.1,6.9-7.3s2.5-6.3,2.5-9.5c0-3.2-0.9-6.4-2.6-9.5
		c-1.7-3.1-4.1-5.4-7-7.1c-3-1.7-6.1-2.5-9.4-2.5c-2.9,0-5.4,0.5-7.7,1.6c-2.3,1.1-4.2,2.5-5.9,4.2c-1.7,1.7-3,3.8-3.9,6.2
		C251.5,62.4,251,64.8,251,67.3z"/>
	<path class="st2" d="M302.6,67.6c0-3.5,0.7-6.8,2-9.8s3.1-5.6,5.2-7.7c2.2-2.1,4.6-3.8,7.2-5c3.4-1.6,7-2.4,10.7-2.4
		c4.3,0,8.4,1.1,12.3,3.3c4,2.2,7.1,5.3,9.3,9.2c2.3,3.9,3.4,8,3.4,12.1c0,4.2-1.1,8.2-3.4,12.1c-2.2,3.9-5.3,7-9.3,9.2
		s-8.1,3.3-12.4,3.3c-3.1,0-6-0.5-8.8-1.6c-2.8-1.1-5.3-2.5-7.5-4.4s-3.9-3.8-5.1-5.8c-1.2-2-2.1-4-2.7-6.1S302.6,69.7,302.6,67.6z
		 M308.7,67.5c0,3.3,0.8,6.4,2.5,9.4c1.6,3,4,5.3,7.1,7c3.1,1.7,6.2,2.6,9.4,2.6c3.2,0,6.3-0.8,9.3-2.5c3-1.7,5.3-4,7-7
		c1.7-3,2.5-6.3,2.5-9.8c0-3.6-0.9-6.9-2.6-9.8c-1.7-2.9-4.1-5.2-7.2-6.8c-3.1-1.6-6.1-2.5-9.2-2.5c-3.1,0-6.2,0.9-9.3,2.6
		s-5.5,4.1-7.1,7.1C309.6,60.7,308.7,64,308.7,67.5z"/>
	<path class="st2" d="M373.1,90.7l-20.2-46.9h6.6l16.9,39.4l17.2-39.4h6.6l-20.2,46.9H373.1z"/>
</g>
<g>
	<path class="st2" d="M450.1,30.7h7.5L475.1,72l17.7-41.3h7.5v48.5h-4.8V36h-0.1l-18.1,43.2h-4.1L455,36h-0.1v43.2h-4.8V30.7z"/>
	<path class="st2" d="M522.8,78l-14-34.6h4.8l11.4,28.6l12.2-28.6h4.8l-20.8,48.4h-4.8L522.8,78z"/>
	<path class="st2" d="M568.4,30.7h26.5v4.4h-21.7v17.4h21v4.4h-21v17.9h21.7v4.4h-26.5V30.7z"/>
	<path class="st2" d="M603.1,43.4h4.6V48h0.1c0.3-0.5,0.8-1.1,1.4-1.8c0.6-0.7,1.4-1.3,2.3-1.8c0.9-0.5,2-1,3.2-1.4
		c1.2-0.4,2.6-0.6,4.1-0.6c2.2,0,4.3,0.3,6.1,0.9c1.8,0.6,3.6,1.8,5.2,3.4c1.4,1.3,2.4,3,3.2,5.1c0.8,2.1,1.2,4.6,1.2,7.6v19.7h-4.6
		V59.5c0-2.4-0.3-4.3-1-6c-0.6-1.6-1.5-2.9-2.5-3.9c-1.3-1.2-2.6-2-4.1-2.5c-1.5-0.4-2.7-0.6-3.7-0.6c-1,0-2.2,0.2-3.7,0.6
		c-1.5,0.4-2.8,1.2-4.1,2.5c-1,0.9-1.8,2.2-2.4,3.8c-0.6,1.6-0.9,3.5-0.9,5.7v20h-4.6V43.4z"/>
	<path class="st2" d="M647.3,47.5h-7.5v-4.1h7.5V30.7h4.6v12.6h8.6v4.1h-8.6v31.7h-4.6V47.5z"/>
	<path class="st2" d="M668.2,63c0.1,1.7,0.5,3.4,1.3,5c0.8,1.6,1.8,2.9,3.1,4.1c1.3,1.2,2.8,2.1,4.4,2.8c1.6,0.7,3.3,1,5.1,1
		c1.6,0,3.1-0.3,4.5-0.8c1.4-0.5,2.6-1.1,3.7-1.8c1.1-0.8,2-1.6,2.8-2.7c0.8-1,1.4-2.1,1.8-3.2h4.8c-0.6,1.8-1.5,3.4-2.6,5
		c-1.1,1.5-2.5,2.9-4,4c-1.5,1.1-3.3,2-5.1,2.7c-1.9,0.6-3.8,0.9-5.9,0.9c-2.5,0-4.9-0.5-7.1-1.4s-4.3-2.3-6-4
		c-1.7-1.7-3.1-3.7-4.1-5.9c-1-2.3-1.5-4.7-1.5-7.4c0-2.5,0.5-4.9,1.4-7.2c1-2.3,2.3-4.3,4-6c1.7-1.7,3.6-3.1,5.9-4.1
		c2.2-1,4.7-1.6,7.3-1.6c2,0,3.8,0.3,5.5,0.8c1.7,0.5,3.2,1.3,4.5,2.1c1.3,0.9,2.5,1.9,3.5,2.9c1,1.1,1.8,2.2,2.5,3.3
		c1,1.7,1.8,3.4,2.2,5.1s0.6,3.3,0.6,4.9c0,0.2,0,0.4,0,0.7c0,0.2,0,0.4,0,0.7H668.2z M696.2,58.8c-0.3-2.1-1-3.9-2-5.5
		c-1-1.5-2.1-2.8-3.4-3.8c-1.3-1-2.7-1.7-4.2-2.2c-1.5-0.5-2.9-0.7-4.4-0.7c-1.4,0-2.8,0.2-4.4,0.7c-1.5,0.5-2.9,1.2-4.2,2.2
		c-1.3,1-2.5,2.3-3.4,3.8c-1,1.6-1.6,3.4-1.9,5.5H696.2z"/>
	<path class="st2" d="M707.9,43.4h4.6v5.2h0.1c0.5-1.3,1.2-2.3,1.9-3c0.8-0.8,1.6-1.4,2.5-1.8c0.9-0.4,1.8-0.7,2.8-0.9
		c1-0.2,2-0.3,2.9-0.4v4.8c-1.6,0.1-3.1,0.5-4.4,1.1s-2.4,1.4-3.3,2.5c-0.8,1-1.4,2.1-1.8,3.4c-0.4,1.2-0.7,2.6-0.7,4v21h-4.6V43.4z
		"/>
	<path class="st2" d="M727.5,43.4h4.6v6.3h0.1c1-1.5,2.2-2.7,3.4-3.6c1.2-0.9,2.4-1.7,3.7-2.2c1.2-0.5,2.5-0.9,3.7-1.1
		c1.2-0.2,2.3-0.3,3.2-0.3c2.9,0,5.6,0.5,8,1.6c2.4,1,4.4,2.4,6.1,4.2c1.7,1.7,2.9,3.7,3.9,6c0.9,2.2,1.4,4.6,1.4,7
		c0,2.6-0.5,5-1.4,7.3c-1,2.3-2.3,4.3-4,6c-1.7,1.7-3.7,3.1-6.1,4.1c-2.4,1-4.9,1.5-7.7,1.5c-0.9,0-2-0.1-3.2-0.3
		c-1.2-0.2-2.4-0.6-3.7-1.1s-2.5-1.3-3.7-2.2c-1.2-0.9-2.3-2.1-3.3-3.6h-0.1v18.9h-4.6V43.4z M760.9,61.4c0-2.3-0.4-4.3-1.2-6.2
		c-0.8-1.8-1.9-3.4-3.2-4.7c-1.4-1.3-2.9-2.2-4.7-2.9c-1.8-0.7-3.6-1-5.6-1c-2.1,0-4,0.4-5.7,1.2c-1.8,0.8-3.3,1.9-4.6,3.2
		c-1.3,1.3-2.3,2.9-3,4.7c-0.7,1.8-1.1,3.7-1.1,5.6c0,2.1,0.4,4,1.1,5.8c0.8,1.8,1.8,3.3,3.1,4.6c1.3,1.3,2.8,2.3,4.6,3
		c1.7,0.7,3.6,1.1,5.5,1.1c2.2,0,4.2-0.4,6-1.1c1.8-0.8,3.4-1.8,4.7-3.1c1.3-1.3,2.3-2.8,3-4.6C760.5,65.3,760.9,63.4,760.9,61.4z"
		/>
	<path class="st2" d="M772.2,43.4h4.6v5.2h0.1c0.5-1.3,1.2-2.3,1.9-3c0.8-0.8,1.6-1.4,2.5-1.8c0.9-0.4,1.8-0.7,2.8-0.9
		c1-0.2,2-0.3,2.9-0.4v4.8c-1.6,0.1-3.1,0.5-4.4,1.1s-2.4,1.4-3.3,2.5c-0.8,1-1.4,2.1-1.8,3.4c-0.4,1.2-0.7,2.6-0.7,4v21h-4.6V43.4z
		"/>
	<path class="st2" d="M792,30.7h4.6V39H792V30.7z M792,43.4h4.6v35.8H792V43.4z"/>
	<path class="st2" d="M807,68.6c0,1.7,0.3,3,0.9,4c0.5,1,1.1,1.7,1.8,2.2c0.7,0.5,1.4,0.8,2.1,0.9c0.7,0.1,1.3,0.2,1.7,0.2
		c2.2,0,3.8-0.6,5-1.7c1.1-1.2,1.7-2.7,1.7-4.7c0-1.2-0.3-2.2-0.8-3c-0.5-0.8-1.1-1.4-1.8-2c-0.7-0.5-1.5-0.9-2.3-1.3
		c-0.8-0.3-1.6-0.6-2.2-0.9c-0.9-0.3-1.9-0.7-3-1.1c-1.1-0.4-2.1-1-3.1-1.8c-0.9-0.8-1.7-1.7-2.4-2.8s-1-2.5-1-4.2
		c0-1.3,0.2-2.5,0.7-3.7c0.4-1.2,1.1-2.3,2-3.2c0.9-0.9,1.9-1.7,3.2-2.2c1.3-0.6,2.7-0.9,4.4-0.9c1.3,0,2.6,0.2,3.8,0.7
		c1.2,0.5,2.2,1.1,3.1,2c0.9,0.9,1.6,1.9,2.1,3c0.5,1.2,0.8,2.5,0.8,3.9v0.1h-4.6c-0.1-1.1-0.3-2-0.7-2.7c-0.4-0.7-0.8-1.3-1.3-1.7
		c-0.5-0.4-1.1-0.7-1.7-0.9c-0.6-0.2-1.1-0.3-1.7-0.3c-0.9,0-1.7,0.2-2.4,0.5c-0.7,0.3-1.2,0.8-1.7,1.3c-0.5,0.5-0.8,1.1-1,1.7
		c-0.2,0.6-0.3,1.3-0.3,1.9c0,1,0.2,1.8,0.6,2.4c0.4,0.7,1,1.2,1.6,1.7c0.7,0.5,1.4,0.8,2.1,1.1c0.7,0.3,1.4,0.5,2.1,0.8
		c1,0.4,2.2,0.8,3.4,1.3c1.2,0.5,2.3,1.2,3.3,2c1,0.8,1.8,1.9,2.5,3.1c0.7,1.3,1,2.8,1,4.7v0.1c0,1.5-0.2,3-0.7,4.3
		c-0.5,1.3-1.2,2.5-2.1,3.5c-0.9,1-2.1,1.8-3.5,2.3c-1.4,0.6-3.1,0.9-4.9,0.9c-1.2,0-2.5-0.2-3.8-0.6c-1.3-0.4-2.5-1.1-3.6-2
		c-1.1-0.9-1.9-2-2.6-3.4c-0.7-1.4-1-3.1-1-5v-0.4H807z"/>
	<path class="st2" d="M833.4,63c0.1,1.7,0.5,3.4,1.3,5c0.8,1.6,1.8,2.9,3.1,4.1c1.3,1.2,2.8,2.1,4.4,2.8c1.6,0.7,3.3,1,5.1,1
		c1.6,0,3.1-0.3,4.5-0.8c1.4-0.5,2.6-1.1,3.7-1.8c1.1-0.8,2-1.6,2.8-2.7c0.8-1,1.4-2.1,1.8-3.2h4.8c-0.6,1.8-1.5,3.4-2.6,5
		c-1.1,1.5-2.5,2.9-4,4c-1.5,1.1-3.3,2-5.1,2.7c-1.9,0.6-3.8,0.9-5.9,0.9c-2.5,0-4.9-0.5-7.1-1.4s-4.3-2.3-6-4
		c-1.7-1.7-3.1-3.7-4.1-5.9c-1-2.3-1.5-4.7-1.5-7.4c0-2.5,0.5-4.9,1.4-7.2c1-2.3,2.3-4.3,4-6c1.7-1.7,3.6-3.1,5.9-4.1
		c2.2-1,4.7-1.6,7.3-1.6c2,0,3.8,0.3,5.5,0.8c1.7,0.5,3.2,1.3,4.5,2.1c1.3,0.9,2.5,1.9,3.5,2.9c1,1.1,1.8,2.2,2.5,3.3
		c1,1.7,1.8,3.4,2.2,5.1s0.6,3.3,0.6,4.9c0,0.2,0,0.4,0,0.7c0,0.2,0,0.4,0,0.7H833.4z M861.4,58.8c-0.3-2.1-1-3.9-2-5.5
		c-1-1.5-2.1-2.8-3.4-3.8c-1.3-1-2.7-1.7-4.2-2.2c-1.5-0.5-2.9-0.7-4.4-0.7c-1.4,0-2.8,0.2-4.4,0.7c-1.5,0.5-2.9,1.2-4.2,2.2
		c-1.3,1-2.5,2.3-3.4,3.8c-1,1.6-1.6,3.4-1.9,5.5H861.4z"/>
	<path class="st2" d="M891.8,30.7h13.5c1.7,0,3.1,0.1,4.4,0.2c1.3,0.1,2.4,0.3,3.4,0.6c1,0.2,1.9,0.5,2.6,0.9
		c0.8,0.4,1.5,0.7,2.1,1.2c1.8,1.2,3.3,2.8,4.4,4.8c1.1,2,1.6,4.3,1.6,6.8c0,2.6-0.5,4.9-1.6,6.8c-1.1,2-2.6,3.6-4.4,4.8
		c-0.7,0.4-1.4,0.8-2.1,1.2c-0.8,0.4-1.6,0.6-2.6,0.9c-1,0.2-2.1,0.4-3.4,0.6c-1.3,0.1-2.7,0.2-4.4,0.2h-8.6v19.5h-4.8V30.7z
		 M896.7,55.3h7c1.3,0,2.4,0,3.3,0c0.9,0,1.7-0.1,2.4-0.1s1.4-0.2,2-0.4c0.6-0.2,1.3-0.4,2-0.7c1.9-0.9,3.3-2.1,4.3-3.7
		c0.9-1.6,1.4-3.3,1.4-5.1s-0.5-3.5-1.4-5.1c-0.9-1.6-2.3-2.8-4.3-3.7c-0.7-0.3-1.4-0.5-2-0.7c-0.6-0.2-1.3-0.3-2-0.4
		c-0.7-0.1-1.5-0.1-2.4-0.1c-0.9,0-2,0-3.3,0h-7V55.3z"/>
	<path class="st2" d="M928.5,61.5c0-2.8,0.5-5.4,1.6-7.8c1.1-2.3,2.5-4.3,4.2-6c1.7-1.7,3.7-3,6-3.9s4.6-1.4,6.9-1.4
		c2.7,0,5.1,0.5,7.4,1.6c2.3,1,4.3,2.4,6,4.2c1.7,1.7,3,3.7,4,6c1,2.3,1.4,4.6,1.4,7.1c0,2.4-0.5,4.8-1.4,7.1c-1,2.3-2.3,4.3-3.9,6
		c-1.7,1.7-3.6,3.1-6,4.2c-2.3,1-4.8,1.6-7.5,1.6c-2.6,0-5.1-0.5-7.3-1.5c-2.3-1-4.2-2.4-5.9-4.1c-1.7-1.7-3-3.7-4-5.9
		C928.9,66.3,928.5,64,928.5,61.5z M933,61.4c0,2.1,0.4,4,1.2,5.8s1.8,3.3,3.1,4.6c1.3,1.3,2.8,2.3,4.5,3c1.7,0.7,3.5,1.1,5.3,1.1
		c1.7,0,3.5-0.3,5.1-1c1.7-0.7,3.2-1.6,4.5-2.9c1.3-1.3,2.4-2.8,3.2-4.7c0.8-1.8,1.2-3.9,1.2-6.3c0-2.4-0.4-4.4-1.3-6.3
		c-0.9-1.8-2-3.3-3.4-4.5c-1.4-1.2-2.9-2.1-4.6-2.8c-1.7-0.6-3.3-0.9-4.8-0.9c-1.7,0-3.3,0.3-5,1c-1.7,0.7-3.2,1.6-4.6,2.9
		c-1.4,1.3-2.5,2.8-3.3,4.7C933.5,57,933,59.1,933,61.4z"/>
	<path class="st2" d="M972.9,43.4h4.6v5.2h0.1c0.5-1.3,1.2-2.3,1.9-3c0.8-0.8,1.6-1.4,2.5-1.8c0.9-0.4,1.8-0.7,2.8-0.9
		c1-0.2,2-0.3,2.9-0.4v4.8c-1.6,0.1-3.1,0.5-4.4,1.1s-2.4,1.4-3.3,2.5c-0.8,1-1.4,2.1-1.8,3.4c-0.4,1.2-0.7,2.6-0.7,4v21h-4.6V43.4z
		"/>
	<path class="st2" d="M996.8,47.5h-7.5v-4.1h7.5V30.7h4.6v12.6h8.6v4.1h-8.6v31.7h-4.6V47.5z"/>
	<path class="st2" d="M1051.2,79.2h-4.6v-6.3h-0.1c-1,1.5-2.1,2.7-3.3,3.6s-2.5,1.6-3.7,2.2s-2.5,0.9-3.7,1.1
		c-1.2,0.2-2.3,0.3-3.2,0.3c-2.8,0-5.4-0.5-7.8-1.5c-2.4-1-4.4-2.4-6.1-4.1c-1.7-1.7-3-3.7-4-6c-0.9-2.3-1.4-4.7-1.4-7.3
		c0-2.4,0.5-4.7,1.4-7c0.9-2.2,2.2-4.2,3.9-6c1.7-1.7,3.7-3.1,6.1-4.2c2.4-1,5-1.6,8-1.6c1,0,2.1,0.1,3.3,0.3
		c1.2,0.2,2.5,0.6,3.7,1.1c1.3,0.5,2.5,1.3,3.7,2.2c1.2,0.9,2.3,2.2,3.2,3.6h0.1v-6.3h4.6V79.2z M1017.9,61.4c0,2,0.3,3.9,1,5.7
		c0.7,1.8,1.7,3.3,3,4.6c1.3,1.3,2.8,2.3,4.7,3.1c1.8,0.8,3.8,1.1,6,1.1c1.9,0,3.8-0.4,5.5-1.1c1.7-0.7,3.3-1.8,4.6-3
		c1.3-1.3,2.3-2.8,3.1-4.6c0.8-1.8,1.1-3.7,1.1-5.8c0-2-0.4-3.8-1.1-5.6c-0.7-1.8-1.7-3.4-3-4.7c-1.3-1.3-2.8-2.4-4.6-3.2
		c-1.7-0.8-3.6-1.2-5.7-1.2c-2,0-3.8,0.4-5.6,1c-1.8,0.7-3.3,1.7-4.7,2.9c-1.4,1.3-2.4,2.8-3.2,4.7S1017.9,59.1,1017.9,61.4z"/>
	<path class="st2" d="M1059.5,30.7h4.6v48.5h-4.6V30.7z"/>
</g>
<g>
	<path class="st2" d="M424.6,117.4V0h8.4v117.4H424.6z"/>
</g>
</svg>
